<svg xmlns="http://www.w3.org/2000/svg" viewBox="0 0 512 512">
  <rect width="512" height="512" rx="96" fill="#315f31"/>
  <ellipse cx="262" cy="386" rx="148" ry="35" fill="#17351e"/>
  <path d="M248 114c-52 0-84 31-84 79h168c0-48-32-79-84-79Z" fill="#61a647"/>
  <path d="M157 198h184c-10 28-43 43-92 43s-82-15-92-43Z" fill="#2c7436"/>
  <path d="M164 255c58-25 120-25 178 0l-31 123H195l-31-123Z" fill="#55a144"/>
  <path d="M157 291h210v34H157z" fill="#17351e" transform="rotate(-10 262 308)"/>
  <path d="M214 162c22-21 61-29 95-8" fill="none" stroke="#dbffd2" stroke-width="18" stroke-linecap="round"/>
  <circle cx="303" cy="268" r="15" fill="#e8ffda"/>
</svg>
